<svg id="visual" viewBox="0 0 900 600" width="900" height="600" xmlns="http://www.w3.org/2000/svg" xmlns:xlink="http://www.w3.org/1999/xlink" version="1.1"><rect x="0" y="0" width="900" height="600" fill="#13131A"></rect><path d="M0 469L30 454C60 439 120 409 180 417.5C240 426 300 473 360 496.5C420 520 480 520 540 510.3C600 500.7 660 481.3 720 458C780 434.7 840 407.3 870 393.7L900 380L900 601L870 601C840 601 780 601 720 601C660 601 600 601 540 601C480 601 420 601 360 601C300 601 240 601 180 601C120 601 60 601 30 601L0 601Z" fill="#B17167" stroke-linecap="round" stroke-linejoin="miter"></path></svg>